<svg xmlns="http://www.w3.org/2000/svg" width="128" height="128" fill="none" viewBox="0 0 128 128"><g filter="url(#filter0_dd)"><path fill="#FFCB3C" fill-rule="evenodd" d="M48.6863 25C50.808 25 52.8429 25.8429 54.3431 27.3431L60 33H116C118.209 33 120 34.7909 120 37V102C120 102.552 119.552 103 119 103H9C8.44772 103 8 102.552 8 102V29C8 26.7909 9.79086 25 12 25H48.6863Z" clip-rule="evenodd"/></g><path fill="#FFE187" d="M48.6863 41C50.808 41 52.8429 40.1571 54.3431 38.6569L60 33H116C118.209 33 120 34.7909 120 37V102C120 102.552 119.552 103 119 103H9C8.44772 103 8 102.552 8 102V41H48.6863Z"/><path fill="url(#paint0_linear)" d="M48.6863 41C50.808 41 52.8429 40.1571 54.3431 38.6569L60 33H116C118.209 33 120 34.7909 120 37V102C120 102.552 119.552 103 119 103H9C8.44772 103 8 102.552 8 102V41H48.6863Z"/><path fill="#fff" d="M48.6863 41C50.808 41 52.8429 40.1571 54.3431 38.6569L60 33H61.5L55.136 39.364C53.4482 41.0518 51.159 42 48.7721 42H8V41H48.6863Z" opacity=".4"/><defs><filter id="filter0_dd" width="119.2" height="85.2" x="4.4" y="23" color-interpolation-filters="sRGB" filterUnits="userSpaceOnUse"><feFlood flood-opacity="0" result="BackgroundImageFix"/><feColorMatrix in="SourceAlpha" type="matrix" values="0 0 0 0 0 0 0 0 0 0 0 0 0 0 0 0 0 0 127 0"/><feOffset dy=".3"/><feGaussianBlur stdDeviation=".45"/><feColorMatrix type="matrix" values="0 0 0 0 0 0 0 0 0 0 0 0 0 0 0 0 0 0 0.108 0"/><feBlend in2="BackgroundImageFix" mode="normal" result="effect1_dropShadow"/><feColorMatrix in="SourceAlpha" type="matrix" values="0 0 0 0 0 0 0 0 0 0 0 0 0 0 0 0 0 0 127 0"/><feOffset dy="1.6"/><feGaussianBlur stdDeviation="1.8"/><feColorMatrix type="matrix" values="0 0 0 0 0 0 0 0 0 0 0 0 0 0 0 0 0 0 0.132 0"/><feBlend in2="effect1_dropShadow" mode="normal" result="effect2_dropShadow"/><feBlend in="SourceGraphic" in2="effect2_dropShadow" mode="normal" result="shape"/></filter><linearGradient id="paint0_linear" x1="122.782" x2="122.782" y1="35.245" y2="100.731" gradientUnits="userSpaceOnUse"><stop stop-color="#FFE187" stop-opacity=".01"/><stop offset="1" stop-color="#FFCF4A" stop-opacity=".3"/></linearGradient></defs></svg>